<?xml version="1.0" encoding="iso-8859-1"?>
<!-- Generator: Adobe Illustrator 19.0.0, SVG Export Plug-In . SVG Version: 6.00 Build 0)  -->
<svg version="1.1" id="Layer_1" xmlns="http://www.w3.org/2000/svg" xmlns:xlink="http://www.w3.org/1999/xlink" x="0px" y="0px"
	 viewBox="0 0 512 512" style="enable-background:new 0 0 512 512;" xml:space="preserve">
<g>
	<g>
		<g>
			<path d="M206.832,137.24c12.273,1.561,22.641-8.809,21.081-21.081c-1.064-8.366-7.819-15.12-16.184-16.184
				c-12.273-1.56-22.642,8.809-21.081,21.081C191.711,129.421,198.466,136.176,206.832,137.24z"/>
			<path d="M304.299,137.24c12.273,1.561,22.641-8.809,21.081-21.081c-1.064-8.366-7.819-15.12-16.184-16.184
				c-12.273-1.56-22.642,8.809-21.081,21.081C289.179,129.421,295.934,136.176,304.299,137.24z"/>
			<path d="M43.737,120.75c0.114,0.117,0.215,0.234,0.331,0.35c6.386,6.387,15.084,9.762,25.15,9.762
				c6.217,0.001,12.801-1.361,19.041-3.935c7.28-2.998,13.92-7.47,19.745-13.296c3.959-3.959,7.324-8.352,10.003-13.027H75.626
				c-4.782,0-8.972-3.625-9.385-8.749c-0.224-2.774,0.936-5.482,2.903-7.45l39.765-39.774c-5.337-3.098-11.636-4.707-18.588-4.707
				c-13.693,0-27.829,6.283-38.783,17.238c-19.134,19.145-22.96,46.646-8.713,62.618C43.12,120.111,43.428,120.431,43.737,120.75z"
				/>
			<path d="M440.171,100.606h-42.152c2.679,4.675,6.043,9.069,10.002,13.027c5.826,5.826,12.468,10.298,19.74,13.292
				c6.247,2.576,12.832,3.939,19.049,3.939c10.067,0,18.764-3.376,25.15-9.762c0.433-0.433,0.846-0.876,1.251-1.326
				c14.244-15.951,10.417-43.462-8.732-62.611c-10.95-10.955-25.081-17.238-38.772-17.238c-6.951,0-13.25,1.609-18.587,4.707
				l39.927,39.935c3.382,3.382,3.779,8.91,0.446,12.825C445.688,99.512,442.953,100.606,440.171,100.606z"/>
			<path d="M86.488,160.433c-1.481-4.29-2.439-8.493-3.051-12.369c-4.725,1.044-9.478,1.588-14.219,1.588
				c-8.588,0-16.745-1.8-24.002-5.193c0.571,7.494,1.942,16.256,4.835,25.456c5.517,17.537,17.845,40.416,45.338,55.694
				c2.491-12.735,9.823-24.139,20.224-31.903C101.363,186.271,91.581,175.146,86.488,160.433z"/>
			<path d="M432.588,148.062c-0.613,3.879-1.576,8.084-3.061,12.373c-5.082,14.708-14.86,25.835-29.115,33.271
				c10.403,7.766,17.737,19.171,20.224,31.903c27.492-15.27,39.821-38.152,45.341-55.696c2.892-9.198,4.264-17.959,4.835-25.453
				c-7.257,3.393-15.414,5.193-24.003,5.193C442.067,149.651,437.316,149.106,432.588,148.062z"/>
			<path d="M402.526,239.175c0.002-0.027,0.006-0.054,0.009-0.081c0.002-0.025,0.005-0.049,0.008-0.073
				c2.174-17.423-10.565-33.812-28.417-36.606c-0.052-0.007-0.102-0.014-0.154-0.022c-1.797-0.272-3.666-0.411-5.556-0.411H147.611
				c-1.889,0-3.759,0.139-5.556,0.411c-17.933,2.715-30.754,19.148-28.583,36.633c0.624,4.963,2.431,9.702,5.368,14.072
				l110.396,164.215c6.352,9.444,17.11,15.082,28.778,15.082c11.668,0,22.426-5.639,28.779-15.084l110.396-164.213
				C400.102,248.762,401.898,244.079,402.526,239.175z"/>
			<path d="M143.939,324.112l-12.63-18.789H90.226c-27.779,0-50.299,22.52-50.299,50.3v35.132c0,4.709,3.34,8.918,8.002,9.587
				c5.807,0.834,10.787-3.649,10.787-9.295v-35.425c0-17.403,14.108-31.51,31.51-31.51H143.939z"/>
			<path d="M104.514,270.093c0.983,0,1.931-0.153,2.821-0.432l-11.311-18.357H50.299c-27.78,0-50.299,22.52-50.299,50.3v51.572
				c0,4.709,3.34,8.918,8.002,9.587c5.807,0.834,10.787-3.649,10.787-9.295v-51.866c0-17.403,14.108-31.51,31.51-31.51H104.514z"/>
			<path d="M379.499,358.167h-29.078l-12.962,18.789h42.04c17.403,0,31.51,14.108,31.51,31.51v26.912
				c0,4.709,3.34,8.918,8.002,9.587c5.807,0.834,10.787-3.649,10.787-9.295v-27.205
				C429.798,380.686,407.278,358.167,379.499,358.167z"/>
			<path d="M421.774,305.323h-34.898l-12.962,18.789h47.86c17.403,0,31.51,14.108,31.51,31.51v35.132
				c0,4.709,3.34,8.918,8.002,9.587c5.807,0.834,10.787-3.649,10.787-9.295v-35.425
				C472.073,327.842,449.554,305.323,421.774,305.323z"/>
			<path d="M461.701,251.304h-37.559l-12.962,18.789h50.521c17.403,0,31.51,14.108,31.51,31.51v51.572
				c0,4.709,3.34,8.918,8.002,9.587c5.807,0.834,10.787-3.649,10.787-9.295v-51.866C512,273.824,489.48,251.304,461.701,251.304z"/>
			<path d="M179.14,376.956l-12.429-18.789h-34.209c-27.781,0-50.3,22.52-50.3,50.3v26.912c0,4.709,3.34,8.918,8.002,9.587
				c5.807,0.834,10.787-3.649,10.787-9.295v-27.205c0-17.403,14.108-31.51,31.51-31.51H179.14z"/>
			<polygon points="179.14,376.956 179.14,376.956 179.14,376.956 			"/>
			<path d="M179.475,406.314c-27.78,0-50.299,22.52-50.299,50.299v5.774c0,4.709,3.34,8.918,8.002,9.587
				c5.807,0.834,10.787-3.649,10.787-9.295v-6.068c0-17.403,14.108-31.51,31.51-31.51h31.514l-12.429-18.788H179.475z"/>
			<path d="M333.701,406.314h-16.496l-12.962,18.789h29.458c17.403,0,31.51,14.108,31.51,31.51v5.774
				c0,4.709,3.34,8.918,8.002,9.587c5.807,0.834,10.787-3.649,10.787-9.295v-6.068C384,428.833,361.48,406.314,333.701,406.314z"/>
			<rect x="297.348" y="155.597" width="18.789" height="27.596"/>
			<rect x="199.88" y="155.597" width="18.789" height="27.596"/>
		</g>
	</g>
</g>
<g>
</g>
<g>
</g>
<g>
</g>
<g>
</g>
<g>
</g>
<g>
</g>
<g>
</g>
<g>
</g>
<g>
</g>
<g>
</g>
<g>
</g>
<g>
</g>
<g>
</g>
<g>
</g>
<g>
</g>
</svg>
